<mxfile host="app.diagrams.net" modified="2024-05-27T09:33:45.007Z" agent="Mozilla/5.0 (Windows NT 10.0; Win64; x64) AppleWebKit/537.36 (KHTML, like Gecko) Chrome/123.0.0.0 Safari/537.36 OPR/109.0.0.0" etag="deBFEl0-s2pDZMejIwQ7" version="24.4.8" type="device">
  <diagram name="PÃ¡gina-1" id="xv04LFLLZm2W3Hg1gRLW">
    <mxGraphModel dx="753" dy="463" grid="1" gridSize="10" guides="1" tooltips="1" connect="1" arrows="1" fold="1" page="1" pageScale="1" pageWidth="827" pageHeight="1169" math="0" shadow="0">
      <root>
        <mxCell id="0" />
        <mxCell id="1" parent="0" />
        <mxCell id="3q0glfj9xcN-FiaXvgH5-1" value="Bachelor" style="ellipse;whiteSpace=wrap;html=1;aspect=fixed;fillColor=#ffcc99;strokeColor=#36393d;" parent="1" vertex="1">
          <mxGeometry x="340" y="20" width="80" height="80" as="geometry" />
        </mxCell>
        <mxCell id="3q0glfj9xcN-FiaXvgH5-2" value="Master" style="ellipse;whiteSpace=wrap;html=1;aspect=fixed;fillColor=#ffcc99;strokeColor=#36393d;" parent="1" vertex="1">
          <mxGeometry x="210" y="160" width="80" height="80" as="geometry" />
        </mxCell>
        <mxCell id="3q0glfj9xcN-FiaXvgH5-3" value="Program" style="ellipse;whiteSpace=wrap;html=1;aspect=fixed;fillColor=#ffcc99;strokeColor=#36393d;" parent="1" vertex="1">
          <mxGeometry x="420" y="160" width="80" height="80" as="geometry" />
        </mxCell>
        <mxCell id="3q0glfj9xcN-FiaXvgH5-4" value="Scholarship" style="ellipse;whiteSpace=wrap;html=1;aspect=fixed;fillColor=#cce5ff;strokeColor=#36393d;" parent="1" vertex="1">
          <mxGeometry x="630" y="190" width="80" height="80" as="geometry" />
        </mxCell>
        <mxCell id="3q0glfj9xcN-FiaXvgH5-5" value="University" style="ellipse;whiteSpace=wrap;html=1;aspect=fixed;fillColor=#ffcccc;strokeColor=#36393d;" parent="1" vertex="1">
          <mxGeometry x="590" y="20" width="80" height="80" as="geometry" />
        </mxCell>
        <mxCell id="3q0glfj9xcN-FiaXvgH5-6" value="Review" style="ellipse;whiteSpace=wrap;html=1;aspect=fixed;fillColor=#cdeb8b;strokeColor=#36393d;" parent="1" vertex="1">
          <mxGeometry x="530" y="350" width="80" height="80" as="geometry" />
        </mxCell>
        <mxCell id="3q0glfj9xcN-FiaXvgH5-7" value="User" style="ellipse;whiteSpace=wrap;html=1;aspect=fixed;fillColor=#ffff88;strokeColor=#36393d;" parent="1" vertex="1">
          <mxGeometry x="310" y="350" width="80" height="80" as="geometry" />
        </mxCell>
        <mxCell id="3q0glfj9xcN-FiaXvgH5-9" value="rdfs:subClassOf" style="endArrow=classic;html=1;rounded=0;exitX=0.729;exitY=0.966;exitDx=0;exitDy=0;entryX=0.309;entryY=0.055;entryDx=0;entryDy=0;entryPerimeter=0;exitPerimeter=0;" parent="1" source="3q0glfj9xcN-FiaXvgH5-1" target="3q0glfj9xcN-FiaXvgH5-3" edge="1">
          <mxGeometry width="50" height="50" relative="1" as="geometry">
            <mxPoint x="450" y="140" as="sourcePoint" />
            <mxPoint x="500" y="90" as="targetPoint" />
          </mxGeometry>
        </mxCell>
        <mxCell id="3q0glfj9xcN-FiaXvgH5-10" value="rdfs:subClassOf" style="endArrow=classic;html=1;rounded=0;exitX=1;exitY=0.5;exitDx=0;exitDy=0;entryX=0;entryY=0.5;entryDx=0;entryDy=0;" parent="1" source="3q0glfj9xcN-FiaXvgH5-2" target="3q0glfj9xcN-FiaXvgH5-3" edge="1">
          <mxGeometry width="50" height="50" relative="1" as="geometry">
            <mxPoint x="370" y="220" as="sourcePoint" />
            <mxPoint x="420" y="170" as="targetPoint" />
          </mxGeometry>
        </mxCell>
        <mxCell id="3q0glfj9xcN-FiaXvgH5-11" value="from_uni" style="endArrow=classic;html=1;rounded=0;exitX=1;exitY=0;exitDx=0;exitDy=0;entryX=0;entryY=1;entryDx=0;entryDy=0;" parent="1" source="3q0glfj9xcN-FiaXvgH5-3" target="3q0glfj9xcN-FiaXvgH5-5" edge="1">
          <mxGeometry width="50" height="50" relative="1" as="geometry">
            <mxPoint x="540" y="200" as="sourcePoint" />
            <mxPoint x="590" y="150" as="targetPoint" />
          </mxGeometry>
        </mxCell>
        <mxCell id="3q0glfj9xcN-FiaXvgH5-12" value="eligible_for" style="endArrow=classic;html=1;rounded=0;exitX=0.017;exitY=0.421;exitDx=0;exitDy=0;exitPerimeter=0;entryX=1.013;entryY=0.574;entryDx=0;entryDy=0;entryPerimeter=0;" parent="1" source="3q0glfj9xcN-FiaXvgH5-4" target="3q0glfj9xcN-FiaXvgH5-3" edge="1">
          <mxGeometry width="50" height="50" relative="1" as="geometry">
            <mxPoint x="520" y="210" as="sourcePoint" />
            <mxPoint x="570" y="160" as="targetPoint" />
          </mxGeometry>
        </mxCell>
        <mxCell id="3q0glfj9xcN-FiaXvgH5-13" value="writes" style="endArrow=classic;html=1;rounded=0;exitX=1;exitY=0.5;exitDx=0;exitDy=0;entryX=0;entryY=0.5;entryDx=0;entryDy=0;" parent="1" source="3q0glfj9xcN-FiaXvgH5-7" target="3q0glfj9xcN-FiaXvgH5-6" edge="1">
          <mxGeometry width="50" height="50" relative="1" as="geometry">
            <mxPoint x="400" y="350" as="sourcePoint" />
            <mxPoint x="450" y="300" as="targetPoint" />
          </mxGeometry>
        </mxCell>
        <mxCell id="3q0glfj9xcN-FiaXvgH5-14" value="opinion_of" style="endArrow=classic;html=1;rounded=0;exitX=0.28;exitY=0.063;exitDx=0;exitDy=0;exitPerimeter=0;entryX=0.729;entryY=0.993;entryDx=0;entryDy=0;entryPerimeter=0;" parent="1" source="3q0glfj9xcN-FiaXvgH5-6" target="3q0glfj9xcN-FiaXvgH5-3" edge="1">
          <mxGeometry width="50" height="50" relative="1" as="geometry">
            <mxPoint x="520" y="340" as="sourcePoint" />
            <mxPoint x="570" y="290" as="targetPoint" />
          </mxGeometry>
        </mxCell>
        <mxCell id="7ieiX7ADHjxG-9vwcmyG-1" value="" style="curved=1;endArrow=classic;html=1;rounded=0;entryX=0.392;entryY=0.983;entryDx=0;entryDy=0;entryPerimeter=0;exitX=0.042;exitY=0.708;exitDx=0;exitDy=0;exitPerimeter=0;" edge="1" parent="1" source="3q0glfj9xcN-FiaXvgH5-3" target="3q0glfj9xcN-FiaXvgH5-3">
          <mxGeometry width="50" height="50" relative="1" as="geometry">
            <mxPoint x="430" y="210" as="sourcePoint" />
            <mxPoint x="440" y="260" as="targetPoint" />
            <Array as="points">
              <mxPoint x="330" y="250" />
              <mxPoint x="410" y="340" />
            </Array>
          </mxGeometry>
        </mxCell>
        <mxCell id="7ieiX7ADHjxG-9vwcmyG-2" value="recommends" style="edgeLabel;html=1;align=center;verticalAlign=middle;resizable=0;points=[];" vertex="1" connectable="0" parent="7ieiX7ADHjxG-9vwcmyG-1">
          <mxGeometry x="-0.0119" y="2" relative="1" as="geometry">
            <mxPoint x="-4" y="-6" as="offset" />
          </mxGeometry>
        </mxCell>
      </root>
    </mxGraphModel>
  </diagram>
</mxfile>
